<?xml version="1.0" encoding="UTF-8" standalone="no"?>
<svg width="200" height="200" viewBox="0 0 200 200" xmlns="http://www.w3.org/2000/svg">
  <!-- 背景渐变 -->
  <defs>
    <linearGradient id="bgGradient" x1="0%" y1="0%" x2="100%" y2="100%">
      <stop offset="0%" stop-color="#3b82f6" />
      <stop offset="100%" stop-color="#1e40af" />
    </linearGradient>
    <filter id="shadow" x="-20%" y="-20%" width="140%" height="140%">
      <feDropShadow dx="0" dy="2" stdDeviation="4" flood-color="#0f172a" flood-opacity="0.3" />
    </filter>
  </defs>
  
  <!-- 背景圆 -->
  <circle cx="100" cy="100" r="90" fill="url(#bgGradient)" filter="url(#shadow)" />
  
  <!-- JSON 括号效果 -->
  <path d="M60,55 C45,65 45,95 60,105 C45,115 45,145 60,155" 
        stroke="#f8fafc" stroke-width="10" fill="none" stroke-linecap="round" stroke-linejoin="round" />
  
  <path d="M140,55 C155,65 155,95 140,105 C155,115 155,145 140,155" 
        stroke="#f8fafc" stroke-width="10" fill="none" stroke-linecap="round" stroke-linejoin="round" />
  
  <!-- 中央数据结构表示 -->
  <rect x="75" y="75" width="50" height="50" rx="5" fill="#0ea5e9" opacity="0.9" />
  
  <!-- JSON 数据点 -->
  <circle cx="85" cy="85" r="6" fill="#22d3ee" />
  <circle cx="115" cy="85" r="6" fill="#fb7185" />
  <circle cx="85" cy="115" r="6" fill="#facc15" />
  <circle cx="115" cy="115" r="6" fill="#a78bfa" />
  
  <!-- 连接线 - 表示数据关系 -->
  <line x1="85" y1="85" x2="115" y2="85" stroke="#f8fafc" stroke-width="2" />
  <line x1="85" y1="85" x2="85" y2="115" stroke="#f8fafc" stroke-width="2" />
  <line x1="115" y1="85" x2="115" y2="115" stroke="#f8fafc" stroke-width="2" />
  <line x1="85" y1="115" x2="115" y2="115" stroke="#f8fafc" stroke-width="2" />
  
  <!-- 数据结构表示 - 键值对 -->
  <line x1="75" y1="95" x2="95" y2="95" stroke="#f8fafc" stroke-width="2" stroke-dasharray="2" />
  <line x1="105" y1="95" x2="125" y2="95" stroke="#f8fafc" stroke-width="2" stroke-dasharray="2" />
  <line x1="95" y1="75" x2="95" y2="125" stroke="#f8fafc" stroke-width="2" stroke-dasharray="2" />
  <line x1="105" y1="75" x2="105" y2="125" stroke="#f8fafc" stroke-width="2" stroke-dasharray="2" />

  <!-- 中心点缀 -->
  <circle cx="100" cy="100" r="8" fill="#f8fafc" opacity="0.7" />
  <circle cx="100" cy="100" r="4" fill="#0369a1" />
  
  <!-- 外部装饰点 - 表示JSON格式的多样性 -->
  <circle cx="70" cy="70" r="3" fill="#f8fafc" opacity="0.6" />
  <circle cx="130" cy="70" r="3" fill="#f8fafc" opacity="0.6" />
  <circle cx="70" cy="130" r="3" fill="#f8fafc" opacity="0.6" />
  <circle cx="130" cy="130" r="3" fill="#f8fafc" opacity="0.6" />
</svg> 