<?xml version="1.0" encoding="UTF-8" standalone="no"?>
<svg width="200" height="200" viewBox="0 0 200 200" xmlns="http://www.w3.org/2000/svg">
  <!-- 背景圆形 -->
  <circle cx="100" cy="100" r="90" fill="#2563eb" />
  <circle cx="100" cy="100" r="80" fill="#1e40af" />
  
  <!-- JSON 花括号 -->
  <path d="M60,60 C50,70 50,90 60,100 C50,110 50,130 60,140" 
        stroke="#f8fafc" stroke-width="8" fill="none" stroke-linecap="round" />
  
  <path d="M140,60 C150,70 150,90 140,100 C150,110 150,130 140,140" 
        stroke="#f8fafc" stroke-width="8" fill="none" stroke-linecap="round" />
  
  <!-- 中央数据点效果 -->
  <circle cx="85" cy="80" r="10" fill="#4ade80" />
  <circle cx="115" cy="80" r="10" fill="#fb7185" />
  <circle cx="85" cy="120" r="10" fill="#facc15" />
  <circle cx="115" cy="120" r="10" fill="#a78bfa" />
  
  <!-- 连接线 -->
  <line x1="85" y1="80" x2="115" y2="80" stroke="#f8fafc" stroke-width="3" />
  <line x1="85" y1="80" x2="85" y2="120" stroke="#f8fafc" stroke-width="3" />
  <line x1="115" y1="80" x2="115" y2="120" stroke="#f8fafc" stroke-width="3" />
  <line x1="85" y1="120" x2="115" y2="120" stroke="#f8fafc" stroke-width="3" />
  
  <!-- 视觉点缀 -->
  <circle cx="100" cy="100" r="4" fill="#f8fafc" />
</svg>